<svg id="Group_4471" data-name="Group 4471" xmlns="http://www.w3.org/2000/svg" width="18.192" height="19.85" viewBox="0 0 18.192 19.85">
  <path id="Path_5382" data-name="Path 5382" d="M.374,5.651,8.641.14a.848.848,0,0,1,.934,0l8.267,5.511a.832.832,0,0,1,.35.7V19.033a.812.812,0,0,1-.817.817H11.3a.827.827,0,0,1-.817-.817V13.241H7.73v5.792a.833.833,0,0,1-.841.817H.817A.827.827,0,0,1,0,19.033V6.352a.8.8,0,0,1,.374-.7Zm8.734-3.83L1.658,6.8v11.4H6.072V12.4a.827.827,0,0,1,.817-.817H11.3a.833.833,0,0,1,.841.817v5.792h4.414V6.8L9.108,1.822Z" transform="translate(0 0)" fill="#fb0"/>
</svg>
