 <svg class='svg-header' xmlns="http://www.w3.org/2000/svg" xmlns:xlink="http://www.w3.org/1999/xlink"  viewBox="0 0 500.39 707.674">
                    <defs>
                      <linearGradient id="linear-gradient" x1="0.5" x2="0.5" y2="1" gradientUnits="objectBoundingBox">
                        <stop offset="0" stop-color="#fff"/>
                        <stop offset="1" stop-color="#f3f3f3"/>
                      </linearGradient>
                    </defs>
                    <g id="Group_4510" data-name="Group 4510" transform="translate(-1117.813 -228.041)">
                      <path id="Glass" d="M32.244,0H260.152A32.161,32.161,0,0,1,292.4,32.077V577.384a32.161,32.161,0,0,1-32.244,32.077H32.244A32.161,32.161,0,0,1,0,577.384V32.077A32.161,32.161,0,0,1,32.244,0Z" transform="translate(1310.807 228.041)" fill="url(#linear-gradient)"/>
                      <path id="Image_Place_here" data-name="Image Place here" d="M244.51,589.146H27.571A27.6,27.6,0,0,1,0,561.575v-534A27.6,27.6,0,0,1,27.571,0H56.784a4.942,4.942,0,0,1,3.795,3.751c.119.525.244,1.212.388,2.007.278,1.53.623,3.428,1.136,5.346.664,2.481,3.595,10.584,13.444,10.686,3.715.038,26.877.046,45.653.046,34.54,0,74.173-.027,76.028-.046,9.849-.1,12.78-8.2,13.444-10.686.514-1.922.86-3.822,1.137-5.35.145-.8.269-1.481.388-2A4.783,4.783,0,0,1,215.958,0H244.51a27.6,27.6,0,0,1,27.571,27.571v534A27.6,27.6,0,0,1,244.51,589.146Z" transform="translate(1320.964 238.199)" fill="#e3e3e3"/>
                      <path id="Glass-2" data-name="Glass" d="M32.244,0H260.152A32.161,32.161,0,0,1,292.4,32.077V577.384a32.161,32.161,0,0,1-32.244,32.077H32.244A32.161,32.161,0,0,1,0,577.384V32.077A32.161,32.161,0,0,1,32.244,0Z" transform="translate(1117.813 326.254)" fill="url(#linear-gradient)"/>
                      <path id="Image_Place_here-2" data-name="Image Place here" d="M244.51,589.146H27.571A27.6,27.6,0,0,1,0,561.575v-534A27.6,27.6,0,0,1,27.571,0H56.784a4.942,4.942,0,0,1,3.795,3.751c.119.525.244,1.212.388,2.007.278,1.53.623,3.428,1.136,5.346.664,2.481,3.595,10.584,13.444,10.686,3.715.038,26.877.046,45.653.046,34.54,0,74.173-.027,76.028-.046,9.849-.1,12.78-8.2,13.444-10.686.514-1.922.86-3.822,1.137-5.35.145-.8.269-1.481.388-2A4.783,4.783,0,0,1,215.958,0H244.51a27.6,27.6,0,0,1,27.571,27.571v534A27.6,27.6,0,0,1,244.51,589.146Z" transform="translate(1127.971 336.412)" fill="#e3e3e3"/>
                    </g>
 </svg>